<svg width="25" height="25" viewBox="0 0 25 25" fill="none" xmlns="http://www.w3.org/2000/svg">
<g clip-path="url(#clip0)">
<path d="M13.8806 12.5008L24.7135 1.66788C25.0949 1.28648 25.0949 0.668126 24.7135 0.286779C24.3321 -0.0945677 23.7137 -0.0946165 23.3324 0.286779L12.4995 11.1197L1.66666 0.286779C1.28526 -0.0946165 0.666905 -0.0946165 0.285558 0.286779C-0.0957884 0.668175 -0.0958372 1.28653 0.285558 1.66788L11.1184 12.5007L0.285558 23.3336C-0.0958372 23.715 -0.0958372 24.3334 0.285558 24.7147C0.476232 24.9054 0.726183 25.0007 0.976133 25.0007C1.22608 25.0007 1.47599 24.9054 1.66671 24.7147L12.4995 13.8819L23.3323 24.7147C23.523 24.9054 23.773 25.0007 24.0229 25.0007C24.2729 25.0007 24.5228 24.9054 24.7135 24.7147C25.0949 24.3333 25.0949 23.715 24.7135 23.3336L13.8806 12.5008Z" fill="black"/>
</g>
<defs>
<clipPath id="clip0">
<rect width="25" height="25" fill="white"/>
</clipPath>
</defs>
</svg>
