<svg width="35" height="35" viewBox="0 0 35 35" fill="none" xmlns="http://www.w3.org/2000/svg">
<path d="M1.09372 10.9375H33.9062C34.51 10.9375 34.9999 10.4475 34.9999 9.84378C34.9999 9.24001 34.5099 8.75006 33.9062 8.75006H1.09372C0.489947 8.75006 0 9.2401 0 9.84378C0 10.4475 0.490038 10.9375 1.09372 10.9375Z" fill="#1F2431"/>
<path d="M33.9062 16.4063H1.09372C0.489947 16.4063 0 16.8963 0 17.5C0 18.1037 0.490038 18.5938 1.09372 18.5938H33.9062C34.51 18.5938 34.9999 18.1037 34.9999 17.5C34.9999 16.8963 34.51 16.4063 33.9062 16.4063Z" fill="#1F2431"/>
<path d="M33.4091 24H1.59087C0.712652 24 0 24.448 0 25C0 25.552 0.712784 26 1.59087 26H33.4091C34.2873 26 35 25.552 35 25C35.0001 24.448 34.2873 24 33.4091 24Z" fill="#1F2431"/>
</svg>
