<svg width="16" height="13" viewBox="0 0 16 13" fill="none" xmlns="http://www.w3.org/2000/svg">
<path fill-rule="evenodd" clip-rule="evenodd" d="M6.06687 12.418C5.59849 12.418 5.67808 12.2411 5.51653 11.7951L4.13916 7.26204L14.7416 0.972168" fill="#E9E9E9"/>
<path fill-rule="evenodd" clip-rule="evenodd" d="M6.06616 12.4179C6.42761 12.4179 6.58731 12.2526 6.78905 12.0565L8.71676 10.182L6.31219 8.73199" fill="#E9E9E9"/>
<path fill-rule="evenodd" clip-rule="evenodd" d="M6.02941 8.33276L11.5883 12.4398C12.2227 12.7898 12.6805 12.6086 12.8385 11.8508L15.1013 1.18782C15.333 0.259013 14.7472 -0.162252 14.1404 0.113258L0.853441 5.23665C-0.0535177 5.60042 -0.0482301 6.10642 0.688121 6.33188L4.09785 7.39611L11.9917 2.41595C12.3644 2.18997 12.7064 2.31146 12.4257 2.5606" fill="white"/>
</svg>
