<svg width="15" height="13" viewBox="0 0 15 13" fill="none" xmlns="http://www.w3.org/2000/svg">
<path fill-rule="evenodd" clip-rule="evenodd" d="M7.28336 3.2975L7.31587 3.83365L6.77395 3.768C4.80138 3.51634 3.07808 2.66286 1.61491 1.22946L0.899581 0.518236L0.71533 1.04345C0.32515 2.21424 0.574431 3.45069 1.38731 4.28228C1.82084 4.74184 1.72329 4.80749 0.975449 4.53394C0.71533 4.4464 0.487725 4.38075 0.466048 4.41358C0.39018 4.49017 0.6503 5.48589 0.856228 5.8798C1.13802 6.4269 1.71246 6.96306 2.34108 7.28038L2.87216 7.53204L2.24353 7.54298C1.63659 7.54298 1.61491 7.55393 1.67994 7.78371C1.89671 8.49494 2.75294 9.24993 3.70671 9.57819L4.37868 9.80797L3.79341 10.1581C2.92635 10.6614 1.90755 10.9459 0.888743 10.9678C0.401018 10.9788 0 11.0225 0 11.0554C0 11.1648 1.32228 11.7775 2.0918 12.0183C4.40036 12.7295 7.14246 12.4231 9.20174 11.2085C10.6649 10.3441 12.1281 8.62624 12.8109 6.96306C13.1794 6.07676 13.5479 4.45735 13.5479 3.68047C13.5479 3.17714 13.5804 3.11148 14.1874 2.50968C14.545 2.15953 14.881 1.77656 14.9461 1.66714C15.0544 1.45925 15.0436 1.45925 14.4908 1.64526C13.5696 1.97352 13.4395 1.92975 13.8947 1.43736C14.2307 1.08722 14.6317 0.452585 14.6317 0.266571C14.6317 0.233745 14.4692 0.288455 14.2849 0.386933C14.0898 0.496353 13.6563 0.660482 13.3311 0.75896L12.7459 0.944973L12.2148 0.583888C11.9222 0.386933 11.5103 0.168093 11.2935 0.102442C10.7408 -0.0507461 9.89539 -0.0288622 9.39683 0.146209C8.04204 0.638598 7.18581 1.90787 7.28336 3.2975Z" fill="white"/>
</svg>
